<?xml version="1.0" standalone="no"?>
<!DOCTYPE svg PUBLIC "-//W3C//DTD SVG 20010904//EN"
 "http://www.w3.org/TR/2001/REC-SVG-20010904/DTD/svg10.dtd">
<svg version="1.0" xmlns="http://www.w3.org/2000/svg"
 width="200.000000pt" height="200.000000pt" viewBox="0 0 200.000000 200.000000"
 preserveAspectRatio="xMidYMid meet">
<metadata>
Created by potrace 1.11, written by Peter Selinger 2001-2013
</metadata>
<g transform="translate(0.000000,200.000000) scale(0.100000,-0.100000)"
fill="#000000" stroke="none">
<path d="M448 1900 c-51 -15 -98 -52 -115 -88 -13 -29 -18 -84 -22 -264 -6
-222 -7 -227 -30 -252 -13 -14 -32 -28 -43 -32 -14 -4 -18 -15 -18 -48 0 -39
3 -45 29 -56 52 -21 60 -55 61 -269 1 -137 6 -207 16 -242 24 -81 80 -119 186
-127 l66 -5 0 46 0 45 -45 7 c-64 9 -72 14 -90 48 -13 25 -16 71 -18 237 -2
227 -6 246 -67 294 -18 14 -28 26 -22 26 16 0 65 51 76 80 6 14 12 117 13 230
3 256 7 267 101 285 10 2 27 4 36 4 13 1 16 11 16 46 l0 45 -51 -1 c-29 0 -64
-4 -79 -9z"/>
<path d="M1420 1866 l0 -44 45 -7 c25 -3 58 -17 73 -30 l27 -23 3 -209 c3
-232 12 -276 64 -316 l30 -24 -26 -16 c-58 -38 -61 -52 -66 -300 l-5 -229 -27
-23 c-15 -13 -48 -27 -73 -30 l-45 -7 0 -44 0 -44 49 0 c58 0 105 15 148 47
52 38 63 94 63 316 0 210 8 245 61 273 25 13 29 20 29 59 0 34 -4 45 -18 49
-11 4 -30 18 -43 32 -24 25 -24 30 -30 252 -6 249 -12 282 -65 319 -36 26 -96
43 -151 43 l-43 0 0 -44z"/>
<path d="M712 1708 c-17 -17 -17 -429 0 -446 17 -17 359 -17 376 0 17 17 17
429 0 446 -17 17 -359 17 -376 0z m363 -223 l0 -210 -175 0 -175 0 -3 200 c-1
110 0 205 3 212 3 11 43 13 177 11 l173 -3 0 -210z"/>
<path d="M760 1630 c0 -6 53 -10 140 -10 87 0 140 4 140 10 0 6 -53 10 -140
10 -87 0 -140 -4 -140 -10z"/>
<path d="M760 1540 c0 -5 5 -10 10 -10 6 0 10 5 10 10 0 6 -4 10 -10 10 -5 0
-10 -4 -10 -10z"/>
<path d="M790 1540 c0 -6 48 -10 125 -10 77 0 125 4 125 10 0 6 -48 10 -125
10 -77 0 -125 -4 -125 -10z"/>
<path d="M760 1440 c0 -5 5 -10 10 -10 6 0 10 5 10 10 0 6 -4 10 -10 10 -5 0
-10 -4 -10 -10z"/>
<path d="M790 1440 c0 -6 48 -10 125 -10 77 0 125 4 125 10 0 6 -48 10 -125
10 -77 0 -125 -4 -125 -10z"/>
<path d="M760 1340 c0 -5 5 -10 10 -10 6 0 10 5 10 10 0 6 -4 10 -10 10 -5 0
-10 -4 -10 -10z"/>
<path d="M790 1340 c0 -6 48 -10 125 -10 77 0 125 4 125 10 0 6 -48 10 -125
10 -77 0 -125 -4 -125 -10z"/>
<path d="M1150 1480 c0 -6 27 -10 60 -10 l60 0 0 -260 0 -260 -60 0 c-33 0
-60 -4 -60 -10 0 -6 30 -10 70 -10 l70 0 0 280 0 280 -70 0 c-40 0 -70 -4 -70
-10z"/>
<path d="M712 1168 c-17 -17 -17 -429 0 -446 17 -17 359 -17 376 0 17 17 17
429 0 446 -17 17 -359 17 -376 0z m363 -223 l0 -210 -175 0 -175 0 -3 200 c-1
110 0 205 3 212 3 11 43 13 177 11 l173 -3 0 -210z"/>
<path d="M760 1090 c0 -6 53 -10 140 -10 87 0 140 4 140 10 0 6 -53 10 -140
10 -87 0 -140 -4 -140 -10z"/>
<path d="M760 1000 c0 -5 5 -10 10 -10 6 0 10 5 10 10 0 6 -4 10 -10 10 -5 0
-10 -4 -10 -10z"/>
<path d="M790 1000 c0 -6 48 -10 125 -10 77 0 125 4 125 10 0 6 -48 10 -125
10 -77 0 -125 -4 -125 -10z"/>
<path d="M760 900 c0 -5 5 -10 10 -10 6 0 10 5 10 10 0 6 -4 10 -10 10 -5 0
-10 -4 -10 -10z"/>
<path d="M790 900 c0 -6 48 -10 125 -10 77 0 125 4 125 10 0 6 -48 10 -125 10
-77 0 -125 -4 -125 -10z"/>
<path d="M760 800 c0 -5 5 -10 10 -10 6 0 10 5 10 10 0 6 -4 10 -10 10 -5 0
-10 -4 -10 -10z"/>
<path d="M790 800 c0 -6 48 -10 125 -10 77 0 125 4 125 10 0 6 -48 10 -125 10
-77 0 -125 -4 -125 -10z"/>
<path d="M220 300 c0 -27 3 -30 30 -30 l30 0 0 -85 0 -85 30 0 30 0 0 85 0 85
30 0 c27 0 30 3 28 29 l-2 28 -88 1 -88 1 0 -29z"/>
<path d="M436 298 c9 -18 28 -50 41 -70 15 -25 23 -53 23 -83 0 -43 1 -45 30
-45 28 0 30 2 30 41 0 30 12 63 41 115 l40 74 -34 0 c-28 0 -37 -6 -53 -35
-10 -19 -21 -35 -24 -35 -4 0 -14 16 -23 35 -14 30 -21 35 -52 35 l-36 0 17
-32z"/>
<path d="M660 215 l0 -115 30 0 c27 0 30 3 30 30 0 25 4 30 25 30 51 0 95 39
95 85 0 27 -22 63 -47 74 -13 6 -48 11 -78 11 l-55 0 0 -115z m114 59 c35 -14
11 -64 -31 -64 -20 0 -23 5 -23 35 0 36 15 44 54 29z"/>
<path d="M871 215 l-1 -115 69 0 c46 0 70 4 73 13 10 25 -4 37 -43 37 -32 0
-39 3 -39 20 0 16 7 20 34 20 19 0 36 6 39 13 8 24 -6 37 -39 37 -27 0 -34 4
-34 20 0 16 7 20 33 21 17 1 37 1 43 0 7 -1 9 9 6 24 -4 24 -8 25 -72 25 l-68
0 -1 -115z"/>
<path d="M1096 309 c-41 -33 -56 -69 -46 -114 16 -73 92 -113 159 -85 38 16
71 82 64 127 -12 77 -117 119 -177 72z m121 -9 c82 -50 46 -190 -50 -190 -57
0 -103 41 -108 95 -3 44 2 58 32 86 37 35 79 38 126 9z"/>
<path d="M1322 213 c1 -65 3 -97 5 -70 4 45 5 47 36 47 28 0 35 -6 56 -45 13
-25 26 -44 28 -41 2 2 -5 21 -16 41 l-20 38 29 27 c60 56 23 120 -68 120 l-52
0 2 -117z m119 86 c15 -15 19 -28 14 -47 -9 -36 -33 -51 -82 -52 l-43 0 0 60
0 60 45 0 c32 0 51 -6 66 -21z"/>
<path d="M1511 213 c2 -130 7 -119 11 25 2 50 0 92 -4 92 -5 0 -7 -53 -7 -117z"/>
<path d="M1680 274 l-54 -56 -43 47 c-24 27 -45 46 -48 43 -2 -2 18 -26 45
-53 l50 -49 55 57 54 58 4 -113 3 -113 2 118 c1 64 -2 117 -6 117 -5 0 -33
-25 -62 -56z"/>
</g>
</svg>
